{
  "accessors": [
    {
      "bufferView": 2,
      "componentType": 5126,
      "count": 11147,
      "max": [
        10.796357154846191,
        67.1725845336914,
        9.033679008483887
      ],
      "min": [
        -10.958658218383789,
        1.3877787807814457e-17,
        -13.028881072998047
      ],
      "type": "VEC3"
    },
    {
      "bufferView": 2,
      "byteOffset": 133764,
      "componentType": 5126,
      "count": 11147,
      "max": [
        0.9999725222587585,
        0.998605489730835,
        0.9999121427536011
      ],
      "min": [
        -0.9998202919960022,
        -0.9998212456703186,
        -0.9997935891151428
      ],
      "type": "VEC3"
    },
    {
      "bufferView": 1,
      "componentType": 5126,
      "count": 11147,
      "max": [
        0.999180018901825,
        0.9985880851745605
      ],
      "min": [
        0.0005000000237487257,
        0.0005000000237487257
      ],
      "type": "VEC2"
    },
    {
      "bufferView": 1,
      "byteOffset": 89176,
      "componentType": 5126,
      "count": 11147,
      "max": [
        0.999180018901825,
        0.9985880851745605
      ],
      "min": [
        0.0005000000237487257,
        0.0005000000237487257
      ],
      "type": "VEC2"
    },
    {
      "bufferView": 1,
      "byteOffset": 178352,
      "componentType": 5126,
      "count": 11147,
      "max": [
        0.999180018901825,
        0.9985880851745605
      ],
      "min": [
        0.0005000000237487257,
        0.0005000000237487257
      ],
      "type": "VEC2"
    },
    {
      "bufferView": 1,
      "byteOffset": 267528,
      "componentType": 5126,
      "count": 11147,
      "max": [
        0.999180018901825,
        0.9985880851745605
      ],
      "min": [
        0.0005000000237487257,
        0.0005000000237487257
      ],
      "type": "VEC2"
    },
    {
      "bufferView": 1,
      "byteOffset": 356704,
      "componentType": 5126,
      "count": 11147,
      "max": [
        0.999180018901825,
        0.9985880851745605
      ],
      "min": [
        0.0005000000237487257,
        0.0005000000237487257
      ],
      "type": "VEC2"
    },
    {
      "bufferView": 1,
      "byteOffset": 445880,
      "componentType": 5126,
      "count": 11147,
      "max": [
        0.999180018901825,
        0.9985880851745605
      ],
      "min": [
        0.0005000000237487257,
        0.0005000000237487257
      ],
      "type": "VEC2"
    },
    {
      "bufferView": 1,
      "byteOffset": 535056,
      "componentType": 5126,
      "count": 11147,
      "max": [
        0.999180018901825,
        0.9985880851745605
      ],
      "min": [
        0.0005000000237487257,
        0.0005000000237487257
      ],
      "type": "VEC2"
    },
    {
      "bufferView": 1,
      "byteOffset": 624232,
      "componentType": 5126,
      "count": 11147,
      "max": [
        0.999180018901825,
        0.9985880851745605
      ],
      "min": [
        0.0005000000237487257,
        0.0005000000237487257
      ],
      "type": "VEC2"
    },
    {
      "bufferView": 1,
      "byteOffset": 713408,
      "componentType": 5126,
      "count": 11147,
      "max": [
        0.999180018901825,
        0.9985880851745605
      ],
      "min": [
        0.0005000000237487257,
        0.0005000000237487257
      ],
      "type": "VEC2"
    },
    {
      "bufferView": 1,
      "byteOffset": 802584,
      "componentType": 5126,
      "count": 11147,
      "max": [
        0.999180018901825,
        0.9985880851745605
      ],
      "min": [
        0.0005000000237487257,
        0.0005000000237487257
      ],
      "type": "VEC2"
    },
    {
      "bufferView": 0,
      "componentType": 5125,
      "count": 59940,
      "type": "SCALAR"
    }
  ],
  "asset": {
    "extras": {
      "author": "VizLabSA (https://sketchfab.com/VizLabSA)",
      "license": "CC-BY-4.0 (http://creativecommons.org/licenses/by/4.0/)",
      "source": "https://sketchfab.com/3d-models/woman-doctor-5c1c74673f1b452f8fea8673d515584b",
      "title": "Woman Doctor"
    },
    "generator": "Sketchfab-12.65.0",
    "version": "2.0"
  },
  "bufferViews": [
    {
      "buffer": 0,
      "byteLength": 239760,
      "name": "floatBufferViews",
      "target": 34963
    },
    {
      "buffer": 0,
      "byteLength": 891760,
      "byteOffset": 239760,
      "byteStride": 8,
      "name": "floatBufferViews",
      "target": 34962
    },
    {
      "buffer": 0,
      "byteLength": 267528,
      "byteOffset": 1131520,
      "byteStride": 12,
      "name": "floatBufferViews",
      "target": 34962
    }
  ],
  "buffers": [
    {
      "byteLength": 1399048,
      "uri": "scene.bin"
    }
  ],
  "images": [
    {
      "uri": "textures/medical_Material__85_baseColor.jpeg"
    }
  ],
  "materials": [
    {
      "name": "medical_Material__85",
      "pbrMetallicRoughness": {
        "baseColorTexture": {
          "index": 0
        },
        "metallicFactor": 0.0,
        "roughnessFactor": 0.9562972353452627
      }
    }
  ],
  "meshes": [
    {
      "name": "Mesh1_medical_Material__85_0",
      "primitives": [
        {
          "attributes": {
            "NORMAL": 1,
            "POSITION": 0,
            "TEXCOORD_0": 2,
            "TEXCOORD_1": 3,
            "TEXCOORD_2": 4,
            "TEXCOORD_3": 5,
            "TEXCOORD_4": 6,
            "TEXCOORD_5": 7,
            "TEXCOORD_6": 8,
            "TEXCOORD_7": 9,
            "TEXCOORD_8": 10,
            "TEXCOORD_9": 11
          },
          "indices": 12,
          "material": 0,
          "mode": 4
        }
      ]
    }
  ],
  "nodes": [
    {
      "children": [
        1
      ],
      "matrix": [
        0.027148522436618805,
        0.0,
        0.0,
        0.0,
        0.0,
        6.028182938737371e-18,
        -0.027148522436618805,
        0.0,
        0.0,
        0.027148522436618805,
        6.028182938737371e-18,
        0.0,
        0.0,
        0.0,
        0.0,
        1.0
      ],
      "name": "Sketchfab_model"
    },
    {
      "children": [
        2
      ],
      "matrix": [
        1.0,
        0.0,
        0.0,
        0.0,
        0.0,
        0.0,
        1.0,
        0.0,
        0.0,
        -1.0,
        0.0,
        0.0,
        0.0,
        0.0,
        0.0,
        1.0
      ],
      "name": "2957980afcbb4e928a80044c1e068865.fbx"
    },
    {
      "children": [
        3
      ],
      "name": "RootNode"
    },
    {
      "children": [
        4
      ],
      "name": "Model"
    },
    {
      "children": [
        5
      ],
      "name": "DOCTOR_06_1"
    },
    {
      "children": [
        6
      ],
      "name": "medical_5_1"
    },
    {
      "children": [
        7
      ],
      "name": "Mesh1"
    },
    {
      "mesh": 0,
      "name": "Mesh1_medical_Material__85_0"
    }
  ],
  "samplers": [
    {
      "magFilter": 9729,
      "minFilter": 9987,
      "wrapS": 10497,
      "wrapT": 10497
    }
  ],
  "scene": 0,
  "scenes": [
    {
      "name": "Sketchfab_Scene",
      "nodes": [
        0
      ]
    }
  ],
  "textures": [
    {
      "sampler": 0,
      "source": 0
    }
  ]
}
